<svg width="38" height="46" viewBox="0 0 38 46" fill="none" xmlns="http://www.w3.org/2000/svg">
<path d="M24.25 17C24.25 15.9617 23.9421 14.9466 23.3652 14.0833C22.7883 13.2199 21.9684 12.547 21.0091 12.1496C20.0498 11.7523 18.9942 11.6483 17.9758 11.8509C16.9574 12.0535 16.0219 12.5535 15.2877 13.2877C14.5535 14.0219 14.0535 14.9574 13.8509 15.9758C13.6483 16.9942 13.7523 18.0498 14.1496 19.0091C14.547 19.9684 15.2199 20.7883 16.0833 21.3652C16.9466 21.9421 17.9617 22.25 19 22.25C20.3919 22.2484 21.7263 21.6948 22.7106 20.7106C23.6948 19.7263 24.2484 18.3919 24.25 17ZM19 20.75C18.2583 20.75 17.5333 20.5301 16.9166 20.118C16.2999 19.706 15.8193 19.1203 15.5355 18.4351C15.2516 17.7498 15.1774 16.9958 15.3221 16.2684C15.4668 15.541 15.8239 14.8728 16.3484 14.3484C16.8728 13.8239 17.541 13.4668 18.2684 13.3221C18.9958 13.1774 19.7498 13.2516 20.4351 13.5355C21.1203 13.8193 21.706 14.2999 22.118 14.9166C22.5301 15.5333 22.75 16.2583 22.75 17C22.7488 17.9942 22.3533 18.9473 21.6503 19.6503C20.9473 20.3533 19.9942 20.7488 19 20.75Z" fill="black"/>
<path d="M19.75 8H18.25V9.5H19.75V8Z" fill="black"/>
<path d="M2.14312 12.65L3.61237 12.35L2.78287 8.32475C3.84593 7.93823 4.75587 7.21898 5.37744 6.27392C5.99901 5.32887 6.29902 4.20846 6.23287 3.07925L9.25012 2.45675V13.3363C8.64946 13.9501 8.20811 14.7016 7.96456 15.5252C7.72101 16.3488 7.68267 17.2194 7.85287 18.0613C8.05845 19.0434 8.5437 19.9451 9.25012 20.6578V29.3533C8.5489 29.0824 7.79778 28.9651 7.04737 29.009L3.92512 13.8725L2.45587 14.1725L5.50012 28.9422L4.75462 34.907C4.73718 35.046 4.75901 35.187 4.81762 35.3142L9.31762 45.0642C9.40097 45.2449 9.55265 45.385 9.73929 45.4538C9.92594 45.5225 10.1323 45.5143 10.3129 45.431C10.4935 45.3477 10.6336 45.196 10.7024 45.0093C10.7711 44.8227 10.763 44.6164 10.6796 44.4358L6.27112 34.88L6.44287 33.5075L6.62587 34.394C6.66043 34.5633 6.75236 34.7154 6.88615 34.8248C7.01993 34.9341 7.18735 34.9939 7.36012 34.994C7.42491 34.9939 7.48943 34.9856 7.55212 34.9692L13.0976 33.5H16.0001V36.3597C16.0001 36.5587 16.0791 36.7494 16.2198 36.8901C16.3604 37.0307 16.5512 37.1097 16.7501 37.1097C16.949 37.1097 17.1398 37.0307 17.2805 36.8901C17.4211 36.7494 17.5001 36.5587 17.5001 36.3597V27.5C17.5001 27.1022 17.6582 26.7206 17.9395 26.4393C18.2208 26.158 18.6023 26 19.0001 26C19.3979 26 19.7795 26.158 20.0608 26.4393C20.3421 26.7206 20.5001 27.1022 20.5001 27.5V34.6895C20.5 34.818 20.5329 34.9444 20.5957 35.0566C20.6584 35.1688 20.749 35.2629 20.8586 35.33C22.0076 36.0327 22.7501 37.67 22.7501 39.5C22.7501 41.939 21.3761 44 19.7501 44C19.5512 44 19.3604 44.079 19.2198 44.2197C19.0791 44.3603 19.0001 44.5511 19.0001 44.75C19.0001 44.9489 19.0791 45.1397 19.2198 45.2803C19.3604 45.421 19.5512 45.5 19.7501 45.5C22.2319 45.5 24.2501 42.8083 24.2501 39.5C24.2501 39.3065 24.2351 39.1167 24.2216 38.9263L25.6174 38.267C26.1018 38.0476 26.5131 37.6939 26.8025 37.2477C27.0919 36.8016 27.2473 36.2818 27.2501 35.75C27.2498 35.2005 27.0827 34.6641 26.7709 34.2118L30.4834 34.9775C30.5328 34.9872 30.583 34.9922 30.6334 34.9925C30.8063 34.9925 30.9739 34.9328 31.1078 34.8235C31.2417 34.7142 31.3338 34.5619 31.3684 34.3925L33.5351 23.8797L32.0659 23.5798L30.9469 29.0098C30.1987 28.9658 29.4497 29.0821 28.7501 29.351V20.651C29.454 19.9394 29.9374 19.0395 30.1421 18.0597C30.3117 17.2194 30.2735 16.3503 30.031 15.5281C29.7884 14.7058 29.3487 13.9552 28.7501 13.3415V2.4575L31.7599 3.07775C31.693 4.20709 31.9927 5.32783 32.6144 6.27303C33.236 7.21824 34.1464 7.93735 35.2099 8.32325L32.3734 22.094L33.8426 22.394L37.7291 3.54275C37.7693 3.34856 37.731 3.14635 37.6225 2.98035C37.514 2.81436 37.3441 2.6981 37.1501 2.657L28.6564 0.9065C28.5948 0.78509 28.501 0.682955 28.3852 0.611263C28.2695 0.53957 28.1363 0.50108 28.0001 0.5H10.0001C9.86426 0.501075 9.73131 0.539405 9.61572 0.610816C9.50014 0.682228 9.40637 0.783982 9.34462 0.905L0.850122 2.657C0.655424 2.69725 0.484674 2.81316 0.3754 2.97925C0.266126 3.14534 0.227269 3.34802 0.267372 3.54275L2.14312 12.65ZM10.7501 32V29.075C11.4701 29.2234 12.1309 29.5796 12.6507 30.0994C13.1706 30.6192 13.5267 31.28 13.6751 32H10.7501ZM7.35337 30.4955C8.0215 30.4999 8.67633 30.6827 9.25012 31.025V32.75C9.25385 32.8201 9.26774 32.8894 9.29137 32.9555L7.93462 33.3148L7.35337 30.4955ZM19.0001 24.5C18.2045 24.5 17.4414 24.8161 16.8788 25.3787C16.3162 25.9413 16.0001 26.7044 16.0001 27.5V32H15.1901C15.0273 30.8803 14.5071 29.8431 13.7071 29.0431C12.907 28.243 11.8698 27.7228 10.7501 27.56V6.44C11.8698 6.2772 12.907 5.75701 13.7071 4.95694C14.5071 4.15686 15.0273 3.11971 15.1901 2H22.8101C22.9729 3.11971 23.4931 4.15686 24.2932 4.95694C25.0933 5.75701 26.1304 6.2772 27.2501 6.44V27.56C26.1458 27.7217 25.1216 28.2308 24.326 29.0136C23.5304 29.7964 23.0047 30.8122 22.8251 31.9137L22.0001 31.5245V27.5C22.0001 26.7044 21.6841 25.9413 21.1214 25.3787C20.5588 24.8161 19.7958 24.5 19.0001 24.5ZM24.3251 32C24.4735 31.28 24.8297 30.6192 25.3495 30.0994C25.8694 29.5796 26.5301 29.2234 27.2501 29.075V32H24.3251ZM24.9761 36.9103L23.9546 37.3925C23.6497 36.1786 22.9649 35.0938 22.0001 34.2965V33.5H22.6699L24.9769 34.5897C25.2059 34.6852 25.4016 34.8463 25.5392 35.0528C25.6768 35.2593 25.7503 35.5019 25.7503 35.75C25.7503 35.9981 25.6768 36.2407 25.5392 36.4472C25.4016 36.6537 25.2059 36.8148 24.9769 36.9103H24.9761ZM30.6409 30.4955L30.0514 33.3568L28.6699 33.0718C28.721 32.9721 28.7485 32.862 28.7501 32.75V31.025C29.3223 30.6834 29.9745 30.5006 30.6409 30.4955ZM35.5159 6.83825C34.841 6.54763 34.266 6.06564 33.862 5.45184C33.458 4.83804 33.2427 4.11933 33.2426 3.3845L36.1061 3.97475L35.5159 6.83825ZM27.2501 4.925C26.5301 4.77658 25.8694 4.42044 25.3495 3.90061C24.8297 3.38077 24.4735 2.72002 24.3251 2H27.2501V4.925ZM13.6751 2C13.5267 2.72002 13.1706 3.38077 12.6507 3.90061C12.1309 4.42044 11.4701 4.77658 10.7501 4.925V2H13.6751ZM4.75012 3.3845C4.74998 4.11949 4.53454 4.83835 4.13042 5.45227C3.72629 6.06619 3.15118 6.54828 2.47612 6.839L1.88587 3.97475L4.75012 3.3845Z" fill="black"/>
</svg>
