<svg width="48" height="48" viewBox="0 0 48 48" fill="none" xmlns="http://www.w3.org/2000/svg">
<path d="M17.6992 30.75L20.0992 17.25H23.8492L21.5242 30.75H17.6992Z" fill="#3C58BF"/>
<path d="M17.6992 30.75L20.7742 17.25H23.8492L21.5242 30.75H17.6992Z" fill="#293688"/>
<path d="M35.1 17.4C34.35 17.1 33.15 16.8 31.65 16.8C27.9 16.8 25.2 18.675 25.2 21.375C25.2 23.4 27.075 24.45 28.575 25.125C30.075 25.8 30.525 26.25 30.525 26.85C30.525 27.75 29.325 28.2 28.275 28.2C26.775 28.2 25.95 27.975 24.675 27.45L24.15 27.225L23.625 30.3C24.525 30.675 26.175 31.05 27.9 31.05C31.875 31.05 34.5 29.175 34.5 26.325C34.5 24.75 33.525 23.55 31.275 22.575C29.925 21.9 29.1 21.525 29.1 20.85C29.1 20.25 29.775 19.65 31.275 19.65C32.55 19.65 33.45 19.875 34.125 20.175L34.5 20.325L35.1 17.4Z" fill="#3C58BF"/>
<path d="M35.1 17.4C34.35 17.1 33.15 16.8 31.65 16.8C27.9 16.8 25.875 18.675 25.875 21.375C25.875 23.4 27.075 24.45 28.575 25.125C30.075 25.8 30.525 26.25 30.525 26.85C30.525 27.75 29.325 28.2 28.275 28.2C26.775 28.2 25.95 27.975 24.675 27.45L24.15 27.225L23.625 30.3C24.525 30.675 26.175 31.05 27.9 31.05C31.875 31.05 34.5 29.175 34.5 26.325C34.5 24.75 33.525 23.55 31.275 22.575C29.925 21.9 29.1 21.525 29.1 20.85C29.1 20.25 29.775 19.65 31.275 19.65C32.55 19.65 33.45 19.875 34.125 20.175L34.5 20.325L35.1 17.4Z" fill="#293688"/>
<path d="M41.5496 17.25C40.6496 17.25 39.9746 17.325 39.5996 18.225L33.9746 30.75H38.0246L38.7746 28.5H43.5746L44.0246 30.75H47.6246L44.4746 17.25H41.5496ZM39.8246 26.25C40.0496 25.575 41.3246 22.275 41.3246 22.275C41.3246 22.275 41.6246 21.45 41.8496 20.925L42.0746 22.2C42.0746 22.2 42.8246 25.575 42.9746 26.325H39.8246V26.25Z" fill="#3C58BF"/>
<path d="M42.4496 17.25C41.5496 17.25 40.8746 17.325 40.4996 18.225L33.9746 30.75H38.0246L38.7746 28.5H43.5746L44.0246 30.75H47.6246L44.4746 17.25H42.4496ZM39.8246 26.25C40.1246 25.5 41.3246 22.275 41.3246 22.275C41.3246 22.275 41.6246 21.45 41.8496 20.925L42.0746 22.2C42.0746 22.2 42.8246 25.575 42.9746 26.325H39.8246V26.25Z" fill="#293688"/>
<path d="M10.8008 26.7L10.4258 24.75C9.75078 22.5 7.57578 20.025 5.17578 18.825L8.55078 30.825H12.6008L18.6758 17.325H14.6258L10.8008 26.7Z" fill="#3C58BF"/>
<path d="M10.8008 26.7L10.4258 24.75C9.75078 22.5 7.57578 20.025 5.17578 18.825L8.55078 30.825H12.6008L18.6758 17.325H15.3758L10.8008 26.7Z" fill="#293688"/>
<path d="M0.375 17.25L1.05 17.4C5.85 18.525 9.15 21.375 10.425 24.75L9.075 18.375C8.85 17.475 8.175 17.25 7.35 17.25H0.375Z" fill="#FFBC00"/>
<path d="M0.375 17.25C5.175 18.375 9.15 21.3 10.425 24.675L9.15 19.35C8.925 18.45 8.175 17.925 7.35 17.925L0.375 17.25Z" fill="#F7981D"/>
<path d="M0.375 17.25C5.175 18.375 9.15 21.3 10.425 24.675L9.525 21.75C9.3 20.85 9 19.95 7.95 19.575L0.375 17.25Z" fill="#ED7C00"/>
<path d="M14.55 26.25L12 23.7L10.8 26.55L10.5 24.675C9.825 22.425 7.65 19.95 5.25 18.75L8.625 30.75H12.675L14.55 26.25ZM21.525 30.75L18.3 27.45L17.7 30.75H21.525ZM30.15 26.1C30.45 26.4 30.6 26.625 30.525 26.925C30.525 27.825 29.325 28.275 28.275 28.275C26.775 28.275 25.95 28.05 24.675 27.525L24.15 27.3L23.625 30.375C24.525 30.75 26.175 31.125 27.9 31.125C30.3 31.125 32.25 30.45 33.375 29.25L30.15 26.1ZM34.5 30.75H38.025L38.775 28.5H43.575L44.025 30.75H47.625L46.35 25.275L41.85 20.925L42.075 22.125C42.075 22.125 42.825 25.5 42.975 26.25H39.825C40.125 25.5 41.325 22.275 41.325 22.275C41.325 22.275 41.625 21.45 41.85 20.925" fill="#051244"/>
</svg>
